<svg width="800" height="104" viewBox="0 0 600 78" xmlns="http://www.w3.org/2000/svg">
<marker id="arrow" orient="auto" overflow="visible">
<path d="M-2.77-2.96a6.7 5.7 0 0 0 2.77 2.96 6.7 5.7 0 0 0-2.77 2.96" fill="none" stroke="#000" stroke-width="1.43" stroke-linecap="round" stroke-linejoin="round"/>
</marker>
<g fill="none" stroke="#000">
<path d="M30.23 15.75h524.77M16.09 61.97h555.58" stroke-dasharray="1,29.81" stroke-width="3.26"/>
<g marker-end="url(#arrow)">
<path d="M596.25 17.38H4.63"/>
<path d="M6.8 60.34H595.16"/>
</g>
</g>
<path d="M22.5 25.4c1.09 0 .94 28.4 1.66 28.4s.74-29.3 1.5-29.3.76 29.3 1.54 29.3.75-29.3 1.49-29.3.83 29.3 1.61 29.3.75-29.3 1.55-29.3.69 29.3 1.59 29.3.74-29.3 1.66-29.3.77 29.3 1.65 29.3.76-29.3 1.66-29.3.72 29.3 1.71 29.3.92-29.3 1.77-29.3.83 29.23 1.76 29.3.92-29.3 1.78-29.3.92 29.3 1.85 29.3.96-29.3 1.88-29.3.92 29.3 1.91 29.3.97-29.3 1.92-29.3.94 29.3 1.97 29.3 1.02-29.3 2.03-29.3 1.08 29.3 2.02 29.3 1.13-29.3 2.14-29.3 1.08 29.3 2.08 29.3 1.13-29.3 2.19-29.3 1.13 29.3 2.23 29.3 1.2-29.3 2.31-29.3 1.19 29.3 2.35 29.3 1.23-29.3 2.35-29.3 1.3 29.3 2.46 29.3 1.39-29.3 2.56-29.3 1.36 29.3 2.5 29.3 1.52-29.3 2.64-29.3 1.62 29.3 2.76 29.3 1.51-29.3 2.72-29.3 1.51 29.3 2.89 29.3 1.65-29.3 2.93-29.3 1.67 29.3 3.03 29.3 1.78-29.3 3.11-29.3 1.84 29.3 3.21 29.3 1.83-29.3 3.32-29.3 1.93 29.3 3.4 29.3 2.04-29.3 3.51-29.3 2.15 29.3 3.71 29.3 2.24-29.3 3.84-29.3 2.25 29.3 3.89 29.3 2.49-29.3 4.11-29.3 2.56 29.3 4.32 29.3 2.68-29.3 4.43-29.3 2.79 29.3 4.71 29.3 2.92-29.3 4.91-29.3 2.99 29.3 5.06 29.3 3.35-29.3 5.44-29.3 3.4 29.3 5.72 29.3 3.61-29.3 6.02-29.3 3.89 29.3 6.44 29.3 4.15-29.3 6.88-29.3 4.39 29.3 7.32 29.3 4.79-29.3 7.91-29.3 5.06 29.3 8.54 29.3 5.65-29.3 9.33-29.3 6.23 29.3 10.2 29.3 6.99-29.3 11.4-29.3 7.71 29.3 12.94 29.3 8.79-29.3 14.61-29.3 10.41 29.3 17.14 29.3 12.45-29.3 20.8-29.3 14.82 29.3 25.75 29.3 19.92-29.3 34.67-29.3 28.15 29.3 52.15 29.3c27.23 0 47.15-29.3 110.67-29.3 13.08 0 38.28 1.7 48.88 2.3" fill="none" stroke="#F00"/>
<g font-family="Noto Sans" font-size="10" text-anchor="middle">
<text x="91.85" y="11.8">ZHz</text>
<text x="184.28" y="11.8">EHz</text>
<text x="276.71" y="11.8">PHz</text>
<text x="369.14" y="11.8">THz</text>
<text x="461.57" y="11.8">GHz</text>
<text x="554" y="11.8">MHz</text>
<text x="16.09" y="73">fm</text>
<text x="108.52" y="73">pm</text>
<text x="200.95" y="73">nm</text>
<text x="293.38" y="73">μm</text>
<text x="385.81" y="73">mm</text>
<text x="478.24" y="73">m</text>
<text x="570.67" y="73">km</text>
<g font-family="FreeSerif">
<text x="13" y="11.8" font-style="italic">ν</text>
<text x="588" y="73">λ</text>
</g>
</g>
</svg>